<svg xmlns="http://www.w3.org/2000/svg"
     viewBox="0 0 1500 480"
     role="img"
     aria-labelledby="title desc">
  <title id="title">devbox logo</title>
  <desc id="desc">A rounded box containing a terminal prompt, followed by the word devbox.</desc>

  <g transform="translate(120 90)">
    <rect x="0" y="0" width="300" height="300" rx="52"
          fill="none" stroke="#0B1728" stroke-width="28"/>
    <path d="M78 92 L144 150 L78 208"
          fill="none" stroke="#1597A3" stroke-width="28"
          stroke-linecap="round" stroke-linejoin="round"/>
    <path d="M164 212 H236"
          fill="none" stroke="#1597A3" stroke-width="28"
          stroke-linecap="round"/>
  </g>

  <g transform="translate(500 127) scale(1.0)">
    <path d="M 95.780 64.509 L 95.780 2.986 L 132.694 2.986 L 132.694 162.553 L 95.780 162.553 L 95.780 145.950 Q 88.200 156.089 79.045 160.814 Q 69.923 165.539 57.947 165.539 Q 36.717 165.539 23.067 148.673 Q 9.450 131.775 9.450 105.230 Q 9.450 78.684 23.067 61.819 Q 36.717 44.953 57.947 44.953 Q 69.825 44.953 79.013 49.711 Q 88.200 54.469 95.780 64.509 Z M 71.564 138.863 Q 83.377 138.863 89.578 130.266 Q 95.780 121.636 95.780 105.230 Q 95.780 88.823 89.578 80.227 Q 83.377 71.597 71.564 71.597 Q 59.883 71.597 53.681 80.227 Q 47.480 88.823 47.480 105.230 Q 47.480 121.636 53.681 130.266 Q 59.883 138.863 71.564 138.863 Z M 282.589 104.836 L 282.589 115.270 L 196.785 115.270 Q 198.097 128.198 206.104 134.663 Q 214.110 141.127 228.449 141.127 Q 240.032 141.127 252.172 137.681 Q 264.346 134.236 277.175 127.280 L 277.175 155.564 Q 264.149 160.486 251.122 163.013 Q 238.096 165.539 225.069 165.539 Q 193.897 165.539 176.605 149.691 Q 159.346 133.842 159.346 105.230 Q 159.346 77.142 176.310 61.064 Q 193.274 44.953 223.035 44.953 Q 250.105 44.953 266.347 61.261 Q 282.589 77.536 282.589 104.836 Z M 244.855 92.630 Q 244.855 82.163 238.752 75.764 Q 232.649 69.333 222.805 69.333 Q 212.141 69.333 205.480 75.338 Q 198.819 81.342 197.179 92.630 L 244.855 92.630 Z M 295.932 47.709 L 332.649 47.709 L 361.262 127.083 L 389.743 47.709 L 426.558 47.709 L 381.343 162.553 L 341.049 162.553 L 295.932 47.709 Z M 508.389 138.863 Q 520.168 138.863 526.370 130.266 Q 532.604 121.636 532.604 105.230 Q 532.604 88.823 526.370 80.227 Q 520.168 71.597 508.389 71.597 Q 496.609 71.597 490.276 80.259 Q 483.976 88.922 483.976 105.230 Q 483.976 121.538 490.276 130.200 Q 496.609 138.863 508.389 138.863 Z M 483.976 64.509 Q 491.589 54.469 500.809 49.711 Q 510.029 44.953 522.039 44.953 Q 543.268 44.953 556.886 61.819 Q 570.536 78.684 570.536 105.230 Q 570.536 131.775 556.886 148.673 Q 543.268 165.539 522.039 165.539 Q 510.029 165.539 500.809 160.781 Q 491.589 155.991 483.976 145.950 L 483.976 162.553 L 447.292 162.553 L 447.292 2.986 L 483.976 2.986 L 483.976 64.509 Z M 652.247 71.203 Q 640.041 71.203 633.642 79.964 Q 627.244 88.725 627.244 105.230 Q 627.244 121.734 633.642 130.528 Q 640.041 139.289 652.247 139.289 Q 664.256 139.289 670.589 130.528 Q 676.955 121.734 676.955 105.230 Q 676.955 88.725 670.589 79.964 Q 664.256 71.203 652.247 71.203 Z M 652.247 44.953 Q 681.877 44.953 698.545 60.966 Q 715.214 76.945 715.214 105.230 Q 715.214 133.547 698.545 149.559 Q 681.877 165.539 652.247 165.539 Q 622.519 165.539 605.752 149.559 Q 588.984 133.547 588.984 105.230 Q 588.984 76.945 605.752 60.966 Q 622.519 44.953 652.247 44.953 Z M 770.893 103.786 L 729.451 47.709 L 768.333 47.709 L 791.794 81.736 L 815.583 47.709 L 854.466 47.709 L 813.024 103.589 L 856.501 162.553 L 817.651 162.553 L 791.794 126.263 L 766.266 162.553 L 727.416 162.553 L 770.893 103.786 Z" fill="#0B1728"/>
  </g>
</svg>
